# xmcd
#
# Track frame offsets:
#	180
#	19443
#	48130
#	74055
#	90633
#	119560
#	140405
#	163058
#	185595
#	210669
#	224794
#
# Disc length: 3741 seconds
#
# Revision: 0
# Processed by: cddbd v1.4PL0 Copyright (c) Steve Scherf et al.
# Submitted via: EasyCDDAExtractor 4.5.0.2
#
DISCID=b10e9b0b
DTITLE=Gary Sloan - Skull
DYEAR=1994
DGENRE=Blues
TTITLE0=Let's Work Together
TTITLE1=Boogie-Til-Dawn
TTITLE2=Doggone Blues
TTITLE3=Got To Tell You All About It
TTITLE4=Abu's Blues
TTITLE5=Workout Mama
TTITLE6=Just Like A Fish
TTITLE7=Blues Handyman
TTITLE8=We Used To Have A Love
TTITLE9=Fishin' Hole
TTITLE10=Screamin' Skull
EXTD=
EXTT0=
EXTT1=
EXTT2=
EXTT3=
EXTT4=
EXTT5=
EXTT6=
EXTT7=
EXTT8=
EXTT9=
EXTT10=
PLAYORDER=
